<svg xmlns="http://www.w3.org/2000/svg" viewBox="0 0 512 512">
  <defs>
    <linearGradient id="bg" x1="0" y1="0" x2="0" y2="1">
      <stop offset="0%" stop-color="#1a1a2e"/>
      <stop offset="100%" stop-color="#0f0f1a"/>
    </linearGradient>
  </defs>
  <rect width="512" height="512" rx="96" fill="url(#bg)"/>
  <!-- Sun -->
  <circle cx="220" cy="180" r="64" fill="#ffd93d" opacity="0.95"/>
  <!-- Sun rays -->
  <g stroke="#ffd93d" stroke-width="6" stroke-linecap="round" opacity="0.7">
    <line x1="220" y1="96" x2="220" y2="76"/>
    <line x1="220" y1="264" x2="220" y2="284"/>
    <line x1="136" y1="180" x2="116" y2="180"/>
    <line x1="304" y1="180" x2="324" y2="180"/>
    <line x1="161" y1="121" x2="147" y2="107"/>
    <line x1="279" y1="239" x2="293" y2="253"/>
    <line x1="279" y1="121" x2="293" y2="107"/>
    <line x1="161" y1="239" x2="147" y2="253"/>
  </g>
  <!-- Cloud -->
  <g fill="#e0e0e0">
    <ellipse cx="290" cy="256" rx="80" ry="48"/>
    <ellipse cx="240" cy="280" rx="60" ry="36"/>
    <ellipse cx="340" cy="272" rx="56" ry="36"/>
    <ellipse cx="300" cy="300" rx="90" ry="40"/>
    <ellipse cx="360" cy="296" rx="50" ry="30"/>
  </g>
</svg>
